<svg width="130" height="1318" viewBox="0 0 130 1318" fill="none" xmlns="http://www.w3.org/2000/svg">
<rect x="41.5" y="0.5" width="47" height="47" rx="23.5" stroke="white"/>
<circle cx="65" cy="24" r="3" fill="white"/>
<line x1="65.25" y1="67" x2="65.25" y2="248.4" stroke="white" stroke-width="0.5"/>
<rect x="41.5" y="267.898" width="47" height="47" rx="23.5" stroke="white"/>
<circle cx="65" cy="291.398" r="3" fill="white"/>
<line x1="65.25" y1="334.398" x2="65.25" y2="515.798" stroke="white" stroke-width="0.5"/>
<rect x="41.5" y="535.301" width="47" height="47" rx="23.5" stroke="white"/>
<circle cx="65" cy="558.801" r="3" fill="white"/>
<line x1="65.25" y1="601.801" x2="65.25" y2="783.201" stroke="white" stroke-width="0.5"/>
<rect x="41.5" y="802.699" width="47" height="47" rx="23.5" stroke="white"/>
<circle cx="65" cy="826.199" r="3" fill="white"/>
<line x1="65.25" y1="869.199" x2="65.25" y2="1050.6" stroke="white" stroke-width="0.5"/>
<rect x="41.5" y="1070.1" width="47" height="47" rx="23.5" stroke="white"/>
<circle cx="65" cy="1093.6" r="3" fill="white"/>
<line x1="65.25" y1="1136.6" x2="65.25" y2="1318" stroke="white" stroke-width="0.5"/>
</svg>
